<svg width="1200" height="630" viewBox="0 0 1200 630" fill="none" xmlns="http://www.w3.org/2000/svg">
  <defs>
    <linearGradient id="hero-bg" x1="0" y1="0" x2="1200" y2="630" gradientUnits="userSpaceOnUse">
      <stop offset="0" stop-color="#0c0a09"/>
      <stop offset="0.55" stop-color="#1c1917"/>
      <stop offset="1" stop-color="#292524"/>
    </linearGradient>
  </defs>

  <rect width="1200" height="630" rx="40" fill="url(#hero-bg)"/>

  <g opacity="0.05" stroke="white" stroke-width="1">
    <path d="M0 210C200 180 400 230 600 200C800 170 1000 210 1200 190"/>
    <path d="M0 310C200 290 400 340 600 310C800 280 1000 320 1200 300"/>
    <path d="M0 410C200 385 400 440 600 415C800 385 1000 425 1200 400"/>
    <path d="M0 510C200 490 400 540 600 515C800 490 1000 525 1200 505"/>
  </g>

  <rect x="90" y="220" width="110" height="110" rx="24" fill="#F5EDD8"/>
  <path d="M115 249L132 303H143L126 249H115Z" fill="#1A1A1A"/>
  <path d="M151 303H162L179 249H168L159 276L150 249H139L151 303Z" fill="#1A1A1A"/>

  <text x="90" y="378" fill="#F5F5F4" font-family="Inter, Arial, sans-serif" font-size="60" font-weight="800" letter-spacing="-1">Viral App</text>
  <text x="90" y="418" fill="#78716C" font-family="Inter, Arial, sans-serif" font-size="24" font-weight="400">Content operations platform</text>
</svg>
