<svg width="1200" height="630" viewBox="0 0 1200 630" fill="none" xmlns="http://www.w3.org/2000/svg">
  <defs>
    <linearGradient id="hero-bg" x1="120" y1="20" x2="1090" y2="610" gradientUnits="userSpaceOnUse">
      <stop offset="0" stop-color="#6D28D9"/>
      <stop offset="1" stop-color="#EC4899"/>
    </linearGradient>
    <linearGradient id="hero-glow" x1="0" y1="0" x2="1200" y2="630" gradientUnits="userSpaceOnUse">
      <stop offset="0" stop-color="#FFFFFF" stop-opacity="0.35"/>
      <stop offset="1" stop-color="#FFFFFF" stop-opacity="0"/>
    </linearGradient>
  </defs>

  <rect width="1200" height="630" rx="40" fill="url(#hero-bg)"/>
  <rect width="1200" height="630" rx="40" fill="url(#hero-glow)"/>

  <g opacity="0.18" stroke="white" stroke-width="2">
    <path d="M80 510C290 430 430 520 620 450C820 376 940 430 1120 350"/>
    <path d="M80 560C280 510 420 570 620 520C860 460 940 500 1120 460"/>
    <path d="M80 460C290 390 430 460 620 400C810 340 940 380 1120 310"/>
  </g>

  <rect x="90" y="120" width="170" height="170" rx="36" fill="white" fill-opacity="0.95"/>
  <path d="M130 162L157 248H174L147 162H130Z" fill="#7C3AED"/>
  <path d="M186 248H203L230 162H213L194.5 218L176 162H159L186 248Z" fill="#7C3AED"/>

  <text x="295" y="195" fill="white" font-family="Inter, Arial, sans-serif" font-size="68" font-weight="800">Viral App</text>
  <text x="295" y="255" fill="white" fill-opacity="0.92" font-family="Inter, Arial, sans-serif" font-size="34" font-weight="500">Create viral content at speed</text>

  <g>
    <rect x="295" y="322" width="270" height="64" rx="16" fill="white" fill-opacity="0.18"/>
    <text x="329" y="364" fill="white" font-family="Inter, Arial, sans-serif" font-size="28" font-weight="700">VA</text>
    <text x="396" y="364" fill="white" fill-opacity="0.9" font-family="Inter, Arial, sans-serif" font-size="24" font-weight="500">Visual Identity</text>
  </g>
</svg>
